PathFileType	4	(X/Y/Z)	C:/Users/opensim2020/Desktop/walking_exp_matlab/subject02_walking15_straight_03.trc	
DataRate	CameraRate	NumFrames	NumMarkers	Units	OrigDataRate	OrigDataStartFrame	OrigNumFrames	
100.00	100.00	5	42	mm	100.00	1290	103	
Frame#	Time	LFHD			RFHD			LBHD			RBHD			C7			T10			CLAV			STRN			RBAK			LSHO			LUPA			LELB			LFRM			LWRA			LWRB			LFIN			RSHO			RUPA			RELB			RFRM			RWRA			RWRB			RFIN			LASI			RASI			LPSI			RPSI			LTHI			LKNE			LTIB			LANK			LHEE			LTOE			RTHI			RKNE			RTIB			RANK			RHEE			RTOE			*39			*40			*41			
		X1	Y1	Z1	X2	Y2	Z2	X3	Y3	Z3	X4	Y4	Z4	X5	Y5	Z5	X6	Y6	Z6	X7	Y7	Z7	X8	Y8	Z8	X9	Y9	Z9	X10	Y10	Z10	X11	Y11	Z11	X12	Y12	Z12	X13	Y13	Z13	X14	Y14	Z14	X15	Y15	Z15	X16	Y16	Z16	X17	Y17	Z17	X18	Y18	Z18	X19	Y19	Z19	X20	Y20	Z20	X21	Y21	Z21	X22	Y22	Z22	X23	Y23	Z23	X24	Y24	Z24	X25	Y25	Z25	X26	Y26	Z26	X27	Y27	Z27	X28	Y28	Z28	X29	Y29	Z29	X30	Y30	Z30	X31	Y31	Z31	X32	Y32	Z32	X33	Y33	Z33	X34	Y34	Z34	X35	Y35	Z35	X36	Y36	Z36	X37	Y37	Z37	X38	Y38	Z38	X39	Y39	Z39	X40	Y40	Z40	X41	Y41	Z41	X42	Y42	Z42	

13	0.120	1388.46057	-570.30981	1692.51807	1532.71448	-568.18622	1684.35962	1388.56812	-709.65997	1634.45142	1531.93933	-719.43219	1626.31421	1467.70569	-778.37585	1501.54407	1485.63733	-852.44501	1231.97473	1458.84692	-646.26941	1423.14453	1480.71582	-606.29492	1249.02917	1545.33936	-849.63568	1338.04517	1289.33374	-716.68298	1458.27930	1203.87695	-766.32959	1266.20947	1175.93921	-791.15558	1133.58691	1143.04822	-808.51447	1007.43799	1134.63306	-771.52386	874.98505	1121.96094	-824.55664	887.55914	1096.42493	-816.40045	828.32257	1647.94629	-704.62183	1480.36316	1773.09546	-707.47449	1318.86365	1829.97107	-662.06000	1186.47961	1861.27173	-588.23138	1093.93994	1853.75745	-493.94223	997.93799	1891.66797	-532.18469	980.15363	1900.73438	-469.95911	945.40186	1373.31360	-638.03912	951.57501	1630.93079	-665.70435	947.73151	1431.36096	-850.13452	1009.91150	1543.20288	-865.19727	1018.47906	1322.76392	-616.35962	655.91187	1382.61157	-563.37152	471.56302	1414.19275	-572.43866	279.89487	1466.51465	-508.06503	69.28011	1528.27625	-524.61328	43.39592	1430.98157	-358.78391	64.28737	1687.18640	-827.09509	665.13135	1650.75366	-887.71143	461.77164	1657.00952	-974.31171	294.46432	1627.47290	-1025.79956	103.37410	1570.85547	-1059.40674	49.38637	1670.77234	-886.76575	32.06164	1475.81152	-659.75214	1776.14124	-3360.41309	2845.25098	1034.34888			 
14	0.130	1389.87073	-557.56744	1690.60999	1534.25330	-554.63306	1682.36926	1390.58069	-696.85870	1632.23877	1534.04431	-706.01593	1624.13428	1469.80176	-765.02588	1499.11377	1487.59277	-838.88007	1229.76453	1460.29651	-632.74335	1420.79736	1481.94763	-592.90149	1246.70728	1547.36267	-835.87439	1335.76733	1291.14587	-704.01086	1456.32446	1205.24426	-756.41400	1265.40808	1176.71924	-783.68597	1133.80713	1142.33179	-805.54340	1009.07471	1131.73279	-774.49432	875.48138	1119.46899	-826.65808	890.36877	1093.05798	-821.40637	831.38013	1649.74146	-690.62836	1477.85767	1774.75354	-693.00641	1316.76831	1832.47363	-645.87000	1185.12488	1863.12708	-569.53876	1094.24866	1854.51599	-472.96478	1000.55890	1892.53955	-510.51077	981.72150	1901.21887	-447.44092	948.73724	1373.88086	-625.19617	948.33557	1632.27673	-652.29895	945.39832	1433.44446	-837.18109	1007.21741	1544.61255	-852.38654	1015.63263	1323.65466	-606.83911	651.52539	1384.81348	-550.22534	469.07690	1416.26794	-551.36591	277.06488	1467.17126	-478.76889	68.85786	1529.51294	-493.23938	42.01084	1429.50586	-329.80148	68.99474	1688.80103	-817.79431	664.59338	1652.05408	-881.05920	461.97897	1657.68176	-970.36798	296.05612	1628.14600	-1024.64026	105.65074	1571.44629	-1058.90405	52.62929	1671.12769	-886.61145	32.01590	1477.88123	-646.56818	1774.12988	-3357.17822	2845.88525	1034.45569			 
15	0.140	1391.25659	-544.64575	1688.79773	1535.63806	-541.23718	1680.50940	1392.44373	-683.83954	1630.30615	1535.88586	-692.50708	1621.99292	1471.49854	-751.55542	1496.91138	1489.28308	-825.10120	1227.64136	1461.49695	-619.10938	1418.66614	1482.86121	-579.12616	1244.55518	1548.80823	-822.05450	1333.43188	1292.61707	-691.18451	1454.54810	1206.39368	-746.23206	1264.68872	1177.73303	-775.42035	1134.03125	1142.03711	-802.13910	1011.04095	1129.73132	-776.27631	876.31000	1117.67944	-828.13666	893.79431	1090.56287	-825.25873	834.61548	1651.24121	-676.66516	1475.66028	1776.07422	-679.30859	1314.28589	1834.77661	-630.21722	1183.73438	1864.56104	-551.47864	1094.40967	1854.80371	-452.93747	1003.31232	1893.01086	-489.43951	983.35181	1901.45349	-425.51050	952.18842	1374.42981	-612.01093	945.53796	1633.53687	-638.65820	943.26874	1435.36035	-824.03754	1004.84448	1545.90479	-839.15179	1012.91833	1324.71289	-597.71545	647.17810	1386.45313	-536.75623	466.51614	1417.44104	-531.92798	274.89410	1467.48132	-452.75876	68.79042	1529.53186	-466.25052	41.33450	1429.34485	-303.71881	72.99920	1690.54883	-808.00745	664.09222	1653.65833	-873.65277	462.25980	1658.57544	-965.95856	297.58197	1629.16919	-1023.30438	108.31387	1572.26331	-1058.44092	56.43932	1671.39832	-886.39520	31.87302	1479.69360	-633.44543	1772.20032						 
16	0.150	1392.52075	-531.54596	1687.23511	1536.87732	-527.78430	1678.73804	1393.99048	-670.74359	1628.65454	1537.43909	-678.95599	1620.06506	1472.84631	-737.92108	1494.85254	1490.80005	-811.19867	1225.77808	1462.31262	-605.32684	1416.82080	1483.59497	-565.15741	1242.80469	1549.63733	-808.19775	1331.01306	1293.77722	-678.12976	1452.92932	1207.37012	-735.52417	1264.01440	1178.61877	-767.10443	1134.41296	1141.76282	-798.68262	1013.48151	1127.83765	-778.01276	877.69415	1116.01331	-829.03778	897.35840	1088.60303	-828.75983	838.53467	1652.59619	-662.63385	1473.36694	1777.21558	-665.76447	1311.77612	1836.74255	-615.16235	1182.17896	1865.65137	-534.07635	1094.45520	1854.93970	-433.14890	1005.98279	1893.05652	-469.34283	984.76300	1901.04309	-404.72250	955.40796	1375.10437	-598.45898	943.42053	1634.64148	-624.79230	941.16815	1437.05103	-810.46631	1002.73633	1547.08057	-825.44397	1010.45166	1325.78320	-587.99457	644.43341	1387.84863	-523.21417	464.34470	1418.45508	-513.91217	273.01947	1467.45752	-429.79474	68.40277	1529.28540	-443.18503	40.46798	1430.20300	-280.51907	75.79692	1692.24585	-797.29791	663.75397	1655.52502	-865.27484	462.76648	1660.12598	-960.51678	299.69849	1630.57825	-1021.70410	111.51363	1573.49927	-1057.78723	60.98681	1671.78516	-886.17865	31.74850	1481.31946	-620.24457	1770.43091						 
17	0.160	1393.68555	-518.21063	1686.03955	1538.00330	-514.28876	1677.23755	1395.21960	-657.39142	1627.29785	1538.72302	-665.36505	1618.37842	1473.88574	-724.24512	1493.12537	1492.07361	-797.10223	1224.07581	1462.91956	-591.47968	1415.18835	1483.91736	-551.14050	1241.22034	1550.47766	-793.81812	1329.03333	1294.64587	-664.84296	1451.52710	1208.23169	-724.23090	1263.45752	1179.77625	-758.06573	1134.98157	1141.87122	-794.05908	1015.88348	1126.57898	-778.81665	879.38287	1114.88672	-828.82733	901.28809	1087.12073	-831.51379	842.85938	1653.79578	-648.56995	1471.31421	1778.16797	-652.30408	1309.35059	1838.44922	-600.65033	1180.66431	1866.50500	-517.32306	1094.59058	1854.54810	-414.56390	1008.74603	1892.66626	-449.87381	986.27850	1900.25537	-384.43445	958.60114	1375.73376	-584.18390	941.78992	1635.81543	-610.55560	939.28583	1438.44482	-796.52667	1001.06970	1548.21716	-811.19604	1008.29706	1326.76221	-575.59729	643.03406	1389.04260	-509.50037	462.65955	1418.98328	-497.99673	271.44836	1467.07690	-410.39191	67.68877	1528.54480	-423.89212	38.98978	1432.04163	-260.53491	77.29828	1694.08740	-785.91608	663.45068	1657.57776	-855.54480	462.94421	1661.99915	-954.21716	301.82159	1632.47314	-1019.78381	115.32880	1575.19360	-1057.00952	66.31113	1672.27393	-885.94965	31.67974	1482.67322	-607.06519	1768.83777	-3356.89941	2846.07544	1034.19568			 
